<svg width="523.25" height="114.85975609756096" viewBox="0 0 410 90" class="css-1j8o68f"><defs id="SvgjsDefs3725"></defs><g id="SvgjsG3726" featurekey="symbolContainer" transform="matrix(1,0,0,1,0,0)" fill="#ffffff"><rect width="90" height="90" rx="8"></rect></g><g id="SvgjsG3727" featurekey="symbolFeature-0" transform="matrix(0.7500074959550453,0,0,0.7500074959550453,7.499625202247733,7.499925040449547)" fill="#005792"><path xmlns="http://www.w3.org/2000/svg" d="M16.667,43.33C16.667,69.104,37.559,90,63.333,90v-6.667c-22.093,0-40-17.91-40-40.003H16.667z"></path><path xmlns="http://www.w3.org/2000/svg" d="M63.333,16.667c-14.729,0-26.666,11.94-26.666,26.664C36.667,58.06,48.604,70,63.333,70v6.667  C44.922,76.667,30,61.741,30,43.33C30,24.922,44.922,10,63.333,10V16.667z"></path><path xmlns="http://www.w3.org/2000/svg" d="M63.333,43.333v20c-11.048,0-20-8.955-20-20.003c0-11.045,8.952-19.997,20-19.997c11.049,0,20,8.952,20,19.997  L63.333,43.333z"></path></g><g id="SvgjsG3728" featurekey="nameFeature-0" transform="matrix(1.0333426011528186,0,0,1.0333426011528186,108.0159831124211,18.095892761692824)" fill="#ffffff"><path d="M13.4 40.4 c-3.8 0 -7.4 -1.2 -10.52 -3.52 c-0.56 -0.4 -0.96 -1.08 -0.96 -1.88 c0 -1.28 1.04 -2.28 2.32 -2.28 c0.68 0 1.12 0.2 1.44 0.44 c2.32 1.84 4.8 2.88 7.84 2.88 s4.96 -1.44 4.96 -3.52 l0 -0.08 c0 -2 -1.12 -3.08 -6.32 -4.28 c-5.96 -1.44 -9.32 -3.2 -9.32 -8.36 l0 -0.08 c0 -4.8 4 -8.12 9.56 -8.12 c3.52 0 6.36 0.92 8.88 2.6 c0.56 0.32 1.08 1 1.08 1.96 c0 1.28 -1.04 2.28 -2.32 2.28 c-0.48 0 -0.88 -0.12 -1.28 -0.36 c-2.16 -1.4 -4.24 -2.12 -6.44 -2.12 c-2.88 0 -4.56 1.48 -4.56 3.32 l0 0.08 c0 2.16 1.28 3.12 6.68 4.4 c5.92 1.44 8.96 3.56 8.96 8.2 l0 0.08 c0 5.24 -4.12 8.36 -10 8.36 z M36.08 37.76 l0 -21.2 l-6.8 0 c-1.28 0 -2.28 -1.04 -2.28 -2.28 s1 -2.28 2.28 -2.28 l18.6 0 c1.24 0 2.24 1.04 2.24 2.28 s-1 2.28 -2.24 2.28 l-6.84 0 l0 21.2 c0 1.36 -1.12 2.44 -2.48 2.44 s-2.48 -1.08 -2.48 -2.44 z M57.6 40 c-1.4 0 -2.48 -1.08 -2.48 -2.48 l0 -23.04 c0 -1.4 1.08 -2.48 2.48 -2.48 l16.28 0 c1.2 0 2.2 1 2.2 2.2 c0 1.24 -1 2.2 -2.2 2.2 l-13.84 0 l0 7.28 l12.04 0 c1.2 0 2.2 1 2.2 2.24 c0 1.2 -1 2.16 -2.2 2.16 l-12.04 0 l0 7.52 l14.04 0 c1.2 0 2.2 1 2.2 2.2 c0 1.24 -1 2.2 -2.2 2.2 l-16.48 0 z M81.92 37.8 l0 -23.48 c0 -1.36 1.08 -2.48 2.48 -2.48 l0.52 0 c1.08 0 1.8 0.56 2.28 1.32 l8.48 13.28 l8.52 -13.32 c0.52 -0.84 1.24 -1.28 2.24 -1.28 l0.52 0 c1.4 0 2.48 1.12 2.48 2.48 l0 23.44 c0 1.36 -1.08 2.44 -2.48 2.44 c-1.32 0 -2.44 -1.12 -2.44 -2.44 l0 -16.8 l-6.84 10.28 c-0.52 0.8 -1.16 1.28 -2.08 1.28 c-0.88 0 -1.52 -0.48 -2.04 -1.28 l-6.8 -10.2 l0 16.76 c0 1.36 -1.08 2.4 -2.44 2.4 s-2.4 -1.04 -2.4 -2.4 z M141.64000000000001 40.48 c-8.16 0 -14.24 -6.36 -14.24 -14.4 l0 -0.08 c0 -7.96 5.96 -14.48 14.44 -14.48 c4.32 0 7.16 1.28 9.6 3.16 c0.52 0.4 0.96 1.08 0.96 1.96 c0 1.36 -1.08 2.4 -2.44 2.4 c-0.68 0 -1.16 -0.24 -1.48 -0.48 c-1.92 -1.56 -4 -2.52 -6.68 -2.52 c-5.32 0 -9.24 4.4 -9.24 9.88 l0 0.08 c0 5.48 3.88 9.92 9.24 9.92 c2.96 0 4.96 -0.96 7 -2.68 c0.36 -0.32 0.88 -0.56 1.48 -0.56 c1.24 0 2.32 1.04 2.32 2.28 c0 0.76 -0.36 1.36 -0.8 1.76 c-2.64 2.32 -5.64 3.76 -10.16 3.76 z M167.64000000000001 40.48 c-6.44 0 -11.2 -4.92 -11.2 -10.92 l0 -0.08 c0 -6.04 4.8 -11.04 11.28 -11.04 s11.24 4.92 11.24 10.96 l0 0.08 c0 6 -4.8 11 -11.32 11 z M167.72 36.24 c3.92 0 6.4 -3.04 6.4 -6.68 l0 -0.08 c0 -3.72 -2.68 -6.8 -6.48 -6.8 c-3.88 0 -6.36 3.04 -6.36 6.72 l0 0.08 c0 3.68 2.68 6.76 6.44 6.76 z M183.88 37.8 l0 -16.72 c0 -1.36 1.04 -2.44 2.4 -2.44 s2.44 1.08 2.44 2.44 l0 1.04 c1.36 -1.96 3.32 -3.68 6.6 -3.68 c4.76 0 7.52 3.2 7.52 8.08 l0 11.28 c0 1.36 -1.04 2.4 -2.4 2.4 s-2.44 -1.04 -2.44 -2.4 l0 -9.8 c0 -3.28 -1.64 -5.16 -4.52 -5.16 c-2.8 0 -4.76 1.96 -4.76 5.24 l0 9.72 c0 1.36 -1.08 2.4 -2.44 2.4 c-1.32 0 -2.4 -1.04 -2.4 -2.4 z M208.68 37.8 l0 -16.72 c0 -1.36 1.04 -2.44 2.4 -2.44 s2.44 1.08 2.44 2.44 l0 1.04 c1.36 -1.96 3.32 -3.68 6.6 -3.68 c4.76 0 7.52 3.2 7.52 8.08 l0 11.28 c0 1.36 -1.04 2.4 -2.4 2.4 s-2.44 -1.04 -2.44 -2.4 l0 -9.8 c0 -3.28 -1.64 -5.16 -4.52 -5.16 c-2.8 0 -4.76 1.96 -4.76 5.24 l0 9.72 c0 1.36 -1.08 2.4 -2.44 2.4 c-1.32 0 -2.4 -1.04 -2.4 -2.4 z M237.12000000000003 27.96 l10.84 0 c-0.32 -3.12 -2.16 -5.56 -5.36 -5.56 c-2.96 0 -5.04 2.28 -5.48 5.56 z M250.76000000000002 37.68 c-1.92 1.72 -4.32 2.8 -7.6 2.8 c-6.12 0 -10.84 -4.44 -10.84 -10.96 l0 -0.08 c0 -6.04 4.28 -11 10.32 -11 c6.72 0 10.04 5.52 10.04 10.4 c0 1.36 -1.04 2.32 -2.28 2.32 l-13.24 0 c0.52 3.44 2.96 5.36 6.08 5.36 c2.04 0 3.64 -0.72 5 -1.84 c0.36 -0.28 0.68 -0.44 1.24 -0.44 c1.08 0 1.92 0.84 1.92 1.96 c0 0.6 -0.28 1.12 -0.64 1.48 z M267.40000000000003 40.48 c-6.28 0 -10.92 -4.92 -10.92 -10.92 l0 -0.08 c0 -6 4.64 -11.04 11 -11.04 c3.32 0 5.6 1.08 7.4 2.64 c0.32 0.28 0.76 0.88 0.76 1.68 c0 1.24 -1 2.2 -2.24 2.2 c-0.6 0 -1.12 -0.24 -1.44 -0.48 c-1.24 -1.04 -2.6 -1.8 -4.52 -1.8 c-3.52 0 -6.12 3.04 -6.12 6.72 l0 0.08 c0 3.76 2.6 6.76 6.32 6.76 c1.92 0 3.4 -0.76 4.72 -1.88 c0.28 -0.24 0.76 -0.52 1.32 -0.52 c1.16 0 2.08 0.96 2.08 2.12 c0 0.64 -0.24 1.16 -0.68 1.52 c-1.88 1.8 -4.16 3 -7.68 3 z M287.56 40.36 c-3.56 0 -6.08 -1.56 -6.08 -6.2 l0 -11.12 l-0.8 0 c-1.16 0 -2.08 -0.92 -2.08 -2.08 s0.92 -2.08 2.08 -2.08 l0.8 0 l0 -3.6 c0 -1.32 1.08 -2.4 2.44 -2.4 c1.32 0 2.4 1.08 2.4 2.4 l0 3.6 l3.8 0 c1.16 0 2.12 0.92 2.12 2.08 s-0.96 2.08 -2.12 2.08 l-3.8 0 l0 10.36 c0 1.88 0.96 2.64 2.6 2.64 c0.56 0 1.04 -0.12 1.2 -0.12 c1.08 0 2.04 0.88 2.04 2 c0 0.88 -0.6 1.6 -1.28 1.88 c-1.04 0.36 -2.04 0.56 -3.32 0.56 z"></path></g></svg>