<svg width="84" height="81" viewBox="0 0 84 81" fill="none" xmlns="http://www.w3.org/2000/svg">
<rect width="84" height="81" rx="40.5" fill="white"/>
<path d="M20 36.4233C20 52.9899 33.5734 66.421 50.3186 66.421V62.1357C35.9649 62.1357 24.3309 50.6239 24.3309 36.4233H20Z" fill="#005792"/>
<path d="M50.3187 19.2853C40.7494 19.2853 32.994 26.9599 32.994 36.4239C32.994 45.8912 40.7494 53.5658 50.3187 53.5658V57.8511C38.3572 57.8511 28.6625 48.2572 28.6625 36.4233C28.6625 24.5913 38.3572 15 50.3187 15V19.2853Z" fill="#005792"/>
<path d="M50.3186 36.4252V49.2805C43.1408 49.2805 37.3247 43.5245 37.3247 36.4233C37.3247 29.324 43.1408 23.57 50.3186 23.57C57.4971 23.57 63.3125 29.324 63.3125 36.4233L50.3186 36.4252Z" fill="#005792"/>
</svg>
